<svg width="33" height="32" viewBox="0 0 33 32" fill="none" xmlns="http://www.w3.org/2000/svg">
<rect y="8" width="24" height="24" rx="4" fill="#1B1D3D"/>
<path d="M12.2512 22.2512L6.6976 16.0032C6.48628 15.7651 6.18904 15.6208 5.87128 15.6019C5.55352 15.5829 5.24126 15.691 5.0032 15.9024C4.76515 16.1137 4.62079 16.4109 4.60188 16.7287C4.58298 17.0465 4.69108 17.3587 4.9024 17.5968L11.3024 24.7968C11.411 24.919 11.5435 25.0178 11.6917 25.0869C11.8399 25.1561 12.0007 25.1943 12.1642 25.1991C12.3276 25.2039 12.4904 25.1752 12.6423 25.1148C12.7943 25.0544 12.9324 24.9636 13.048 24.848L29.848 8.04797C30.06 7.82049 30.1754 7.51962 30.1699 7.20874C30.1644 6.89786 30.0385 6.60124 29.8186 6.38138C29.5987 6.16152 29.3021 6.03558 28.9912 6.03009C28.6804 6.02461 28.3795 6.14001 28.152 6.35197L12.2512 22.2512Z" fill="#45EEE9"/>
</svg>
