<svg width="24" height="24" viewBox="0 0 24 24" fill="none" xmlns="http://www.w3.org/2000/svg">
<rect width="24" height="24" rx="4" fill="#1B1D3D"/>
<path d="M8.43841 16.6884L4.27321 12.0024C4.11472 11.8239 3.89179 11.7156 3.65347 11.7014C3.41515 11.6872 3.18095 11.7683 3.00241 11.9268C2.82387 12.0853 2.7156 12.3082 2.70142 12.5466C2.68724 12.7849 2.76832 13.0191 2.92681 13.1976L7.72681 18.5976C7.80829 18.6893 7.90766 18.7633 8.0188 18.8152C8.12994 18.8671 8.25052 18.8957 8.37312 18.8993C8.49573 18.9029 8.61777 18.8814 8.73177 18.8361C8.84576 18.7909 8.94929 18.7228 9.03601 18.636L21.636 6.03601C21.795 5.8654 21.8815 5.63975 21.8774 5.40658C21.8733 5.17342 21.7789 4.95096 21.614 4.78606C21.4491 4.62117 21.2266 4.52672 20.9934 4.5226C20.7603 4.51849 20.5346 4.60504 20.364 4.76401L8.43841 16.6884Z" fill="#45EEE9"/>
</svg>
