<svg width="182" height="29" viewBox="0 0 182 29" fill="none" xmlns="http://www.w3.org/2000/svg">
<path d="M54.017 20H51.3807L55.3977 8.36364H58.5682L62.5795 20H59.9432L57.0284 11.0227H56.9375L54.017 20ZM53.8523 15.4261H60.0795V17.3466H53.8523V15.4261ZM68.0298 11.2727V13.0909H62.7741V11.2727H68.0298ZM63.9673 9.18182H66.3878V17.3182C66.3878 17.5417 66.4219 17.7159 66.4901 17.8409C66.5582 17.9621 66.6529 18.0473 66.7741 18.0966C66.8991 18.1458 67.0431 18.1705 67.206 18.1705C67.3196 18.1705 67.4332 18.161 67.5469 18.142C67.6605 18.1193 67.7476 18.1023 67.8082 18.0909L68.1889 19.892C68.0677 19.9299 67.8973 19.9735 67.6776 20.0227C67.4579 20.0758 67.1908 20.108 66.8764 20.1193C66.2931 20.142 65.7817 20.0644 65.3423 19.8864C64.9067 19.7083 64.5677 19.4318 64.3253 19.0568C64.0829 18.6818 63.9635 18.2083 63.9673 17.6364V9.18182ZM72.2145 14.9545V20H69.794V8.36364H72.1463V12.8125H72.2486C72.4455 12.2973 72.7637 11.8939 73.2031 11.6023C73.6425 11.3068 74.1937 11.1591 74.8565 11.1591C75.4626 11.1591 75.991 11.2917 76.4418 11.5568C76.8963 11.8182 77.2486 12.1951 77.4986 12.6875C77.7524 13.1761 77.8774 13.7614 77.8736 14.4432V20H75.4531V14.875C75.4569 14.3371 75.3205 13.9186 75.044 13.6193C74.7713 13.3201 74.3887 13.1705 73.8963 13.1705C73.5668 13.1705 73.2751 13.2405 73.0213 13.3807C72.7713 13.5208 72.5743 13.7254 72.4304 13.9943C72.2902 14.2595 72.2183 14.5795 72.2145 14.9545ZM83.7557 20.1705C82.858 20.1705 82.0852 19.9886 81.4375 19.625C80.7936 19.2576 80.2973 18.7386 79.9489 18.0682C79.6004 17.3939 79.4261 16.5966 79.4261 15.6761C79.4261 14.7784 79.6004 13.9905 79.9489 13.3125C80.2973 12.6345 80.7879 12.1061 81.4205 11.7273C82.0568 11.3485 82.803 11.1591 83.6591 11.1591C84.2348 11.1591 84.7708 11.2519 85.267 11.4375C85.767 11.6193 86.2027 11.8939 86.5739 12.2614C86.9489 12.6288 87.2405 13.0909 87.4489 13.6477C87.6572 14.2008 87.7614 14.8485 87.7614 15.5909V16.2557H80.392V14.7557H85.483C85.483 14.4072 85.4072 14.0985 85.2557 13.8295C85.1042 13.5606 84.8939 13.3504 84.625 13.1989C84.3598 13.0436 84.0511 12.9659 83.6989 12.9659C83.3314 12.9659 83.0057 13.0511 82.7216 13.2216C82.4413 13.3883 82.2216 13.6136 82.0625 13.8977C81.9034 14.178 81.822 14.4905 81.8182 14.8352V16.2614C81.8182 16.6932 81.8977 17.0663 82.0568 17.3807C82.2197 17.6951 82.4489 17.9375 82.7443 18.108C83.0398 18.2784 83.3902 18.3636 83.7955 18.3636C84.0644 18.3636 84.3106 18.3258 84.5341 18.25C84.7576 18.1742 84.9489 18.0606 85.108 17.9091C85.267 17.7576 85.3883 17.572 85.4716 17.3523L87.7102 17.5C87.5966 18.0379 87.3636 18.5076 87.0114 18.9091C86.6629 19.3068 86.2121 19.6174 85.6591 19.8409C85.1098 20.0606 84.4754 20.1705 83.7557 20.1705ZM91.7614 14.9545V20H89.3409V11.2727H91.6477V12.8125H91.75C91.9432 12.3049 92.267 11.9034 92.7216 11.608C93.1761 11.3087 93.7273 11.1591 94.375 11.1591C94.9811 11.1591 95.5095 11.2917 95.9602 11.5568C96.411 11.822 96.7614 12.2008 97.0114 12.6932C97.2614 13.1818 97.3864 13.7652 97.3864 14.4432V20H94.9659V14.875C94.9697 14.3409 94.8333 13.9242 94.5568 13.625C94.2803 13.322 93.8996 13.1705 93.4148 13.1705C93.089 13.1705 92.8011 13.2405 92.5511 13.3807C92.3049 13.5208 92.1117 13.7254 91.9716 13.9943C91.8352 14.2595 91.7652 14.5795 91.7614 14.9545ZM101.783 20.1648C101.226 20.1648 100.73 20.0682 100.294 19.875C99.8584 19.678 99.5137 19.3883 99.2599 19.0057C99.0099 18.6193 98.8849 18.1383 98.8849 17.5625C98.8849 17.0777 98.974 16.6705 99.152 16.3409C99.33 16.0114 99.5724 15.7462 99.8793 15.5455C100.186 15.3447 100.535 15.1932 100.925 15.0909C101.319 14.9886 101.732 14.9167 102.163 14.875C102.671 14.822 103.08 14.7727 103.391 14.7273C103.701 14.678 103.927 14.6061 104.067 14.5114C104.207 14.4167 104.277 14.2765 104.277 14.0909V14.0568C104.277 13.697 104.163 13.4186 103.936 13.2216C103.713 13.0246 103.394 12.9261 102.982 12.9261C102.546 12.9261 102.199 13.0227 101.942 13.2159C101.684 13.4053 101.514 13.6439 101.43 13.9318L99.1918 13.75C99.3054 13.2197 99.5289 12.7614 99.8622 12.375C100.196 11.9848 100.625 11.6856 101.152 11.4773C101.682 11.2652 102.296 11.1591 102.993 11.1591C103.478 11.1591 103.942 11.2159 104.385 11.3295C104.832 11.4432 105.228 11.6193 105.572 11.858C105.921 12.0966 106.196 12.4034 106.396 12.7784C106.597 13.1496 106.697 13.5947 106.697 14.1136V20H104.402V18.7898H104.334C104.194 19.0625 104.006 19.303 103.771 19.5114C103.536 19.7159 103.254 19.8769 102.925 19.9943C102.595 20.108 102.214 20.1648 101.783 20.1648ZM102.476 18.4943C102.832 18.4943 103.146 18.4242 103.419 18.2841C103.692 18.1402 103.906 17.947 104.061 17.7045C104.216 17.4621 104.294 17.1875 104.294 16.8807V15.9545C104.218 16.0038 104.114 16.0492 103.982 16.0909C103.853 16.1288 103.707 16.1648 103.544 16.1989C103.381 16.2292 103.218 16.2576 103.055 16.2841C102.893 16.3068 102.745 16.3277 102.612 16.3466C102.328 16.3883 102.08 16.4545 101.868 16.5455C101.656 16.6364 101.491 16.7595 101.374 16.9148C101.256 17.0663 101.197 17.2557 101.197 17.483C101.197 17.8125 101.317 18.0644 101.555 18.2386C101.798 18.4091 102.105 18.4943 102.476 18.4943ZM114.33 20H111.693L115.71 8.36364H118.881L122.892 20H120.256L117.341 11.0227H117.25L114.33 20ZM114.165 15.4261H120.392V17.3466H114.165V15.4261ZM127.057 20.142C126.394 20.142 125.794 19.9716 125.256 19.6307C124.722 19.286 124.297 18.7803 123.983 18.1136C123.672 17.4432 123.517 16.6212 123.517 15.6477C123.517 14.6477 123.678 13.8163 124 13.1534C124.322 12.4867 124.75 11.9886 125.284 11.6591C125.822 11.3258 126.411 11.1591 127.051 11.1591C127.54 11.1591 127.947 11.2424 128.273 11.4091C128.602 11.572 128.867 11.7765 129.068 12.0227C129.273 12.2652 129.428 12.5038 129.534 12.7386H129.608V8.36364H132.023V20H129.636V18.6023H129.534C129.42 18.8447 129.259 19.0852 129.051 19.3239C128.847 19.5587 128.58 19.7538 128.25 19.9091C127.924 20.0644 127.527 20.142 127.057 20.142ZM127.824 18.2159C128.214 18.2159 128.544 18.1098 128.812 17.8977C129.085 17.6818 129.294 17.3807 129.438 16.9943C129.585 16.608 129.659 16.1553 129.659 15.6364C129.659 15.1174 129.587 14.6667 129.443 14.2841C129.299 13.9015 129.091 13.6061 128.818 13.3977C128.545 13.1894 128.214 13.0852 127.824 13.0852C127.426 13.0852 127.091 13.1932 126.818 13.4091C126.545 13.625 126.339 13.9242 126.199 14.3068C126.059 14.6894 125.989 15.1326 125.989 15.6364C125.989 16.1439 126.059 16.5928 126.199 16.983C126.343 17.3693 126.549 17.6723 126.818 17.892C127.091 18.108 127.426 18.2159 127.824 18.2159ZM142.149 11.2727L139.098 20H136.371L133.32 11.2727H135.876L137.689 17.517H137.78L139.587 11.2727H142.149ZM143.388 20V11.2727H145.808V20H143.388ZM144.604 10.1477C144.244 10.1477 143.935 10.0284 143.678 9.78977C143.424 9.54735 143.297 9.25758 143.297 8.92045C143.297 8.58712 143.424 8.30114 143.678 8.0625C143.935 7.82008 144.244 7.69886 144.604 7.69886C144.964 7.69886 145.27 7.82008 145.524 8.0625C145.782 8.30114 145.911 8.58712 145.911 8.92045C145.911 9.25758 145.782 9.54735 145.524 9.78977C145.27 10.0284 144.964 10.1477 144.604 10.1477ZM155.009 13.7614L152.793 13.8977C152.755 13.7083 152.673 13.5379 152.548 13.3864C152.423 13.2311 152.259 13.108 152.054 13.017C151.853 12.9223 151.613 12.875 151.332 12.875C150.957 12.875 150.641 12.9545 150.384 13.1136C150.126 13.2689 149.997 13.4773 149.997 13.7386C149.997 13.947 150.08 14.1231 150.247 14.267C150.414 14.411 150.7 14.5265 151.105 14.6136L152.685 14.9318C153.533 15.1061 154.166 15.3864 154.582 15.7727C154.999 16.1591 155.207 16.6667 155.207 17.2955C155.207 17.8674 155.039 18.3693 154.702 18.8011C154.368 19.233 153.91 19.5701 153.327 19.8125C152.747 20.0511 152.079 20.1705 151.321 20.1705C150.166 20.1705 149.245 19.9299 148.56 19.4489C147.878 18.964 147.478 18.3049 147.361 17.4716L149.741 17.3466C149.813 17.6989 149.988 17.9678 150.264 18.1534C150.541 18.3352 150.895 18.4261 151.327 18.4261C151.751 18.4261 152.092 18.3447 152.349 18.1818C152.611 18.0152 152.743 17.8011 152.747 17.5398C152.743 17.3201 152.651 17.1402 152.469 17C152.287 16.8561 152.007 16.7462 151.628 16.6705L150.116 16.3693C149.264 16.1989 148.63 15.9034 148.213 15.483C147.8 15.0625 147.594 14.5265 147.594 13.875C147.594 13.3144 147.745 12.8314 148.048 12.4261C148.355 12.0208 148.785 11.7083 149.338 11.4886C149.895 11.2689 150.546 11.1591 151.293 11.1591C152.395 11.1591 153.262 11.392 153.895 11.858C154.531 12.3239 154.902 12.9583 155.009 13.7614ZM160.675 20.1705C159.792 20.1705 159.029 19.983 158.385 19.608C157.745 19.2292 157.25 18.7027 156.902 18.0284C156.554 17.3504 156.379 16.5644 156.379 15.6705C156.379 14.7689 156.554 13.9811 156.902 13.3068C157.25 12.6288 157.745 12.1023 158.385 11.7273C159.029 11.3485 159.792 11.1591 160.675 11.1591C161.557 11.1591 162.319 11.3485 162.959 11.7273C163.603 12.1023 164.099 12.6288 164.447 13.3068C164.796 13.9811 164.97 14.7689 164.97 15.6705C164.97 16.5644 164.796 17.3504 164.447 18.0284C164.099 18.7027 163.603 19.2292 162.959 19.608C162.319 19.983 161.557 20.1705 160.675 20.1705ZM160.686 18.2955C161.088 18.2955 161.423 18.1818 161.692 17.9545C161.961 17.7235 162.163 17.4091 162.3 17.0114C162.44 16.6136 162.51 16.161 162.51 15.6534C162.51 15.1458 162.44 14.6932 162.3 14.2955C162.163 13.8977 161.961 13.5833 161.692 13.3523C161.423 13.1212 161.088 13.0057 160.686 13.0057C160.281 13.0057 159.94 13.1212 159.663 13.3523C159.391 13.5833 159.184 13.8977 159.044 14.2955C158.908 14.6932 158.839 15.1458 158.839 15.6534C158.839 16.161 158.908 16.6136 159.044 17.0114C159.184 17.4091 159.391 17.7235 159.663 17.9545C159.94 18.1818 160.281 18.2955 160.686 18.2955ZM166.544 20V11.2727H168.891V12.7955H168.982C169.141 12.2538 169.408 11.8447 169.783 11.5682C170.158 11.2879 170.589 11.1477 171.078 11.1477C171.199 11.1477 171.33 11.1553 171.47 11.1705C171.61 11.1856 171.733 11.2064 171.839 11.233V13.3807C171.726 13.3466 171.569 13.3163 171.368 13.2898C171.167 13.2633 170.983 13.25 170.817 13.25C170.461 13.25 170.143 13.3277 169.862 13.483C169.586 13.6345 169.366 13.8466 169.203 14.1193C169.044 14.392 168.964 14.7064 168.964 15.0625V20H166.544ZM174.851 23.2727C174.544 23.2727 174.256 23.2481 173.987 23.1989C173.722 23.1534 173.502 23.0947 173.328 23.0227L173.874 21.2159C174.158 21.303 174.413 21.3504 174.641 21.358C174.872 21.3655 175.071 21.3125 175.237 21.1989C175.408 21.0852 175.546 20.892 175.652 20.6193L175.794 20.25L172.663 11.2727H175.209L177.016 17.6818H177.107L178.93 11.2727H181.493L178.101 20.9432C177.938 21.4129 177.716 21.822 177.436 22.1705C177.16 22.5227 176.809 22.7936 176.385 22.983C175.961 23.1761 175.449 23.2727 174.851 23.2727Z" fill="white"/>
<path d="M32.841 15.488C32.2024 16.8487 31.19 17.9998 29.922 18.807C28.6555 19.6132 27.1854 20.0416 25.684 20.042C23.6014 20.0137 21.6116 19.1759 20.136 17.706L20.1 17.817C19.936 18.278 19.78 18.788 19.633 19.347C19.4891 19.8938 19.3327 20.4373 19.164 20.977C19 21.571 18.836 22.18 18.672 22.805H18.572C18.4452 22.1892 18.2987 21.5775 18.133 20.971C17.869 19.904 17.5567 18.8496 17.197 17.811L17.174 17.735C15.584 19.378 13.324 20.042 11.589 20.042C10.0999 20.0423 8.64109 19.6215 7.381 18.828C6.11923 18.0338 5.10713 16.8997 4.461 15.556L0 28.005H5.462L6.832 24.142H14.279L15.681 28.004H21.418L22.788 24.254H30.235L31.634 28.004H37.341L32.841 15.487V15.488ZM11.257 15.108C11.6656 15.1076 12.0701 15.0267 12.4474 14.8699C12.8247 14.7131 13.1674 14.4836 13.4559 14.1943C13.7445 13.905 13.9732 13.5617 14.129 13.184C14.2848 12.8063 14.3647 12.4016 14.364 11.993C14.3647 11.5844 14.2848 11.1797 14.129 10.802C13.9732 10.4243 13.7445 10.081 13.4559 9.79173C13.1674 9.50245 12.8247 9.27285 12.4474 9.11607C12.0701 8.95929 11.6656 8.87839 11.257 8.878C10.8485 8.87852 10.4441 8.95952 10.0669 9.11636C9.68974 9.2732 9.34715 9.50281 9.05871 9.79208C8.77028 10.0813 8.54166 10.4246 8.38592 10.8022C8.23017 11.1799 8.15034 11.5845 8.151 11.993C8.15034 12.4015 8.23017 12.8061 8.38592 13.1838C8.54166 13.5614 8.77028 13.9047 9.05871 14.1939C9.34715 14.4832 9.68974 14.7128 10.0669 14.8696C10.4441 15.0265 10.8485 15.1075 11.257 15.108ZM25.895 15.274C26.7197 15.2727 27.51 14.9439 28.0923 14.3599C28.6746 13.776 29.0011 12.9847 29 12.16C29.0007 11.7515 28.9208 11.3469 28.7651 10.9692C28.6093 10.5916 28.3807 10.2483 28.0923 9.95908C27.8039 9.66981 27.4613 9.4402 27.0841 9.28336C26.7069 9.12652 26.3025 9.04552 25.894 9.045C25.4854 9.04539 25.0809 9.12629 24.7036 9.28307C24.3263 9.43985 23.9836 9.66945 23.6951 9.95873C23.4065 10.248 23.1778 10.5913 23.022 10.969C22.8662 11.3467 22.7863 11.7514 22.787 12.16C22.7863 12.5686 22.8662 12.9733 23.022 13.351C23.1778 13.7287 23.4065 14.072 23.6951 14.3613C23.9836 14.6506 24.3263 14.8801 24.7036 15.0369C25.0809 15.1937 25.4854 15.2746 25.894 15.275L25.895 15.274ZM28.63 4.741L28.619 4.726H28.631L26.676 0L25.736 2.162C23.726 0.88 21.144 -0.035 18.43 0.022C16.069 0.069 13.5 0.929 11.45 2.199L10.516 0.046L8.56 4.778L9.914 4.352C11.62 3.9786 13.4016 4.18262 14.979 4.932C16.5584 5.68265 17.8445 6.93566 18.636 8.495C19.4454 6.90274 20.7689 5.63062 22.392 4.885C24.0129 4.14075 25.838 3.96734 27.57 4.393L28.457 4.675L28.631 4.741H28.63Z" fill="white"/>
</svg>
