<svg width="38" height="29" viewBox="0 0 38 29" fill="none" xmlns="http://www.w3.org/2000/svg">
<path d="M32.841 15.488C32.2024 16.8487 31.19 17.9998 29.922 18.807C28.6555 19.6132 27.1854 20.0416 25.684 20.042C23.6014 20.0137 21.6116 19.1759 20.136 17.706L20.1 17.817C19.936 18.278 19.78 18.788 19.633 19.347C19.4891 19.8938 19.3327 20.4373 19.164 20.977C19 21.571 18.836 22.18 18.672 22.805H18.572C18.4452 22.1892 18.2987 21.5775 18.133 20.971C17.869 19.904 17.5567 18.8496 17.197 17.811L17.174 17.735C15.584 19.378 13.324 20.042 11.589 20.042C10.0999 20.0423 8.64109 19.6215 7.381 18.828C6.11923 18.0338 5.10713 16.8997 4.461 15.556L0 28.005H5.462L6.832 24.142H14.279L15.681 28.004H21.418L22.788 24.254H30.235L31.634 28.004H37.341L32.841 15.487V15.488ZM11.257 15.108C11.6656 15.1076 12.0701 15.0267 12.4474 14.8699C12.8247 14.7131 13.1674 14.4836 13.4559 14.1943C13.7445 13.905 13.9732 13.5617 14.129 13.184C14.2848 12.8063 14.3647 12.4016 14.364 11.993C14.3647 11.5844 14.2848 11.1797 14.129 10.802C13.9732 10.4243 13.7445 10.081 13.4559 9.79173C13.1674 9.50245 12.8247 9.27285 12.4474 9.11607C12.0701 8.95929 11.6656 8.87839 11.257 8.878C10.8485 8.87853 10.4441 8.95952 10.0669 9.11636C9.68974 9.2732 9.34715 9.50281 9.05871 9.79208C8.77028 10.0813 8.54166 10.4246 8.38592 10.8022C8.23017 11.1799 8.15034 11.5845 8.151 11.993C8.15034 12.4015 8.23017 12.8061 8.38592 13.1838C8.54166 13.5614 8.77028 13.9047 9.05871 14.1939C9.34715 14.4832 9.68974 14.7128 10.0669 14.8696C10.4441 15.0265 10.8485 15.1075 11.257 15.108V15.108ZM25.895 15.274C26.7197 15.2727 27.51 14.9439 28.0923 14.3599C28.6746 13.776 29.0011 12.9847 29 12.16C29.0007 11.7515 28.9208 11.3469 28.7651 10.9692C28.6093 10.5916 28.3807 10.2483 28.0923 9.95908C27.8039 9.66981 27.4613 9.4402 27.0841 9.28336C26.7069 9.12652 26.3025 9.04552 25.894 9.045C25.4854 9.04539 25.0809 9.12629 24.7036 9.28307C24.3263 9.43985 23.9836 9.66945 23.6951 9.95873C23.4065 10.248 23.1778 10.5913 23.022 10.969C22.8662 11.3467 22.7863 11.7514 22.787 12.16C22.7863 12.5686 22.8662 12.9733 23.022 13.351C23.1778 13.7287 23.4065 14.072 23.6951 14.3613C23.9836 14.6506 24.3263 14.8801 24.7036 15.0369C25.0809 15.1937 25.4854 15.2746 25.894 15.275L25.895 15.274ZM28.63 4.741L28.619 4.726H28.631L26.676 0L25.736 2.162C23.726 0.88 21.144 -0.035 18.43 0.022C16.069 0.069 13.5 0.929 11.45 2.199L10.516 0.046L8.56 4.778L9.914 4.352C11.62 3.9786 13.4016 4.18262 14.979 4.932C16.5584 5.68265 17.8445 6.93566 18.636 8.495C19.4454 6.90274 20.7689 5.63062 22.392 4.885C24.0129 4.14075 25.838 3.96734 27.57 4.393L28.457 4.675L28.631 4.741H28.63Z" fill="white"/>
</svg>
