<svg width="14" height="15" viewBox="0 0 14 15" fill="none" xmlns="http://www.w3.org/2000/svg">
<path d="M7.58333 9.83331V10.4166C7.58333 10.8808 7.39896 11.3259 7.07077 11.6541C6.74258 11.9823 6.29746 12.1666 5.83333 12.1666H3.5C3.03587 12.1666 2.59075 11.9823 2.26256 11.6541C1.93437 11.3259 1.75 10.8808 1.75 10.4166V4.58331C1.75 4.11918 1.93437 3.67406 2.26256 3.34588C2.59075 3.01769 3.03587 2.83331 3.5 2.83331H5.83333C6.29746 2.83331 6.74258 3.01769 7.07077 3.34588C7.39896 3.67406 7.58333 4.11918 7.58333 4.58331V5.16665M9.91667 9.83331L12.25 7.49998L9.91667 9.83331ZM12.25 7.49998L9.91667 5.16665L12.25 7.49998ZM12.25 7.49998H4.08333H12.25Z" stroke="currentColor" stroke-width="1.16667" stroke-linecap="round" stroke-linejoin="round"/>
</svg>
