<svg width="70" height="36" viewBox="0 0 70 36" fill="none" xmlns="http://www.w3.org/2000/svg">
<path fill-rule="evenodd" clip-rule="evenodd" d="M69.625 17.7016C69.625 18 69.5065 18.2861 69.2955 18.4971C69.0845 18.7081 68.7984 18.8266 68.5 18.8266L16.0908 19.125L23.1715 26.2035C23.3827 26.4147 23.5014 26.7012 23.5014 27C23.5014 27.2987 23.3827 27.5852 23.1715 27.7965C22.9603 28.0077 22.6737 28.1264 22.375 28.1264C22.0763 28.1264 21.7897 28.0077 21.5785 27.7965L12.5785 18.7965C12.4737 18.692 12.3906 18.5678 12.3339 18.4312C12.2772 18.2945 12.248 18.148 12.248 18C12.248 17.852 12.2772 17.7055 12.3339 17.5688C12.3906 17.4321 12.4737 17.308 12.5785 17.2035L21.5785 8.20348C21.7898 7.99223 22.0763 7.87356 22.375 7.87356C22.6737 7.87356 22.9603 7.99223 23.1715 8.20348C23.3827 8.41472 23.5014 8.70123 23.5014 8.99998C23.5014 9.29872 23.3827 9.58523 23.1715 9.79648L16.0908 16.875L68.5 16.5766C68.7984 16.5766 69.0845 16.6951 69.2955 16.9061C69.5065 17.1171 69.625 17.4032 69.625 17.7016Z" fill="currentColor"/>
<circle cx="18" cy="18" r="17" transform="rotate(-180 18 18)" stroke="currentColor" stroke-width="2"/>
</svg>
