<svg width="14" height="15" viewBox="0 0 14 15" fill="none" xmlns="http://www.w3.org/2000/svg">
<path fill-rule="evenodd" clip-rule="evenodd" d="M9.52291 9.19108L12.6612 12.3294C12.7716 12.4398 12.8335 12.5895 12.8334 12.7455C12.8334 12.9016 12.7713 13.0512 12.661 13.1615C12.5506 13.2718 12.4009 13.3338 12.2448 13.3337C12.0888 13.3337 11.9391 13.2716 11.8288 13.1612L8.6905 10.0229C7.75233 10.7496 6.57258 11.0915 5.39124 10.9792C4.2099 10.8669 3.11572 10.3088 2.33128 9.41835C1.54684 8.52794 1.13107 7.37213 1.16856 6.18606C1.20605 4.99999 1.69397 3.87275 2.53307 3.03365C3.37216 2.19455 4.49941 1.70663 5.68548 1.66914C6.87155 1.63165 8.02736 2.04742 8.91777 2.83186C9.80818 3.6163 10.3663 4.71048 10.4786 5.89182C10.5909 7.07316 10.249 8.25291 9.52233 9.19108H9.52291ZM5.83333 9.83333C6.76159 9.83333 7.65183 9.46458 8.3082 8.8082C8.96458 8.15182 9.33333 7.26158 9.33333 6.33333C9.33333 5.40507 8.96458 4.51483 8.3082 3.85845C7.65183 3.20208 6.76159 2.83333 5.83333 2.83333C4.90507 2.83333 4.01483 3.20208 3.35846 3.85845C2.70208 4.51483 2.33333 5.40507 2.33333 6.33333C2.33333 7.26158 2.70208 8.15182 3.35846 8.8082C4.01483 9.46458 4.90507 9.83333 5.83333 9.83333Z" fill="#666666"/>
</svg>
